<svg width="32" height="32" viewBox="0 0 32 32" fill="none" xmlns="http://www.w3.org/2000/svg">
<g clip-path="url(#clip0_55_1201)">
<path d="M22.8137 15.5504L18.3591 11.1754C18.2391 11.0616 18.0783 10.9986 17.9115 11C17.7446 11.0014 17.585 11.0672 17.467 11.1831C17.349 11.2989 17.2821 11.4557 17.2807 11.6196C17.2792 11.7834 17.3433 11.9413 17.4593 12.0592L20.8276 15.3673H9.63637C9.46759 15.3673 9.30573 15.4332 9.18639 15.5504C9.06705 15.6676 9 15.8266 9 15.9923C9 16.1581 9.06705 16.3171 9.18639 16.4343C9.30573 16.5515 9.46759 16.6173 9.63637 16.6173H20.8276L17.4593 19.9254C17.3985 19.9831 17.35 20.0521 17.3167 20.1283C17.2833 20.2046 17.2657 20.2866 17.265 20.3696C17.2643 20.4526 17.2804 20.5349 17.3124 20.6117C17.3444 20.6885 17.3916 20.7583 17.4514 20.8169C17.5111 20.8756 17.5822 20.922 17.6604 20.9535C17.7386 20.9849 17.8224 21.0007 17.9069 21C17.9914 20.9993 18.0749 20.982 18.1525 20.9493C18.2302 20.9165 18.3004 20.8689 18.3591 20.8092L22.8137 16.4342C22.933 16.317 23 16.158 23 15.9923C23 15.8266 22.933 15.6676 22.8137 15.5504Z" fill="#143F8A"/>
</g>
<rect x="0.5" y="0.5" width="31" height="31" rx="15.5" stroke="#143F8A"/>
<defs>
<clipPath id="clip0_55_1201">
<rect width="32" height="32" rx="16" fill="white"/>
</clipPath>
</defs>
</svg>
