<svg width="18" height="19" viewBox="0 0 18 19" fill="none" class="icon icon-account" xmlns="http://www.w3.org/2000/svg">
<path d="M18 9.49956C18 4.53752 13.9623 0.5 9 0.5C4.03772 0.5 0 4.53752 0 9.49956C0 14.3871 3.91717 18.3777 8.77662 18.4965V18.4973H8.82271C8.8821 18.4982 8.94061 18.5 9 18.5C9.05939 18.5 9.1179 18.4991 9.17729 18.4973H9.22338V18.4965C14.0828 18.3768 18 14.3871 18 9.49956ZM8.82271 17.7873C6.64385 17.7412 4.66887 16.8504 3.21334 15.4295C3.66099 12.6037 6.11731 10.4941 9.00089 10.4941C10.5663 10.4941 12.0378 11.1039 13.145 12.211C14.0163 13.0824 14.5952 14.2196 14.7884 15.4295C13.3329 16.8504 11.3579 17.7421 9.17817 17.7873H8.82271ZM9 9.78498C7.39378 9.78498 6.08805 8.47843 6.08805 6.87317C6.08805 5.26791 7.39466 3.96137 9 3.96137C10.6053 3.96137 11.9119 5.26791 11.9119 6.87317C11.9119 8.47843 10.6053 9.78498 9 9.78498ZM9 1.20912C13.5714 1.20912 17.2908 4.92842 17.2908 9.49956C17.2908 11.5081 16.5728 13.3518 15.3806 14.7878C15.0951 13.6319 14.4941 12.5585 13.6458 11.7102C12.8347 10.8992 11.849 10.3283 10.7738 10.0287C11.8756 9.40737 12.6211 8.22581 12.6211 6.87406C12.6211 4.87701 10.9963 3.25314 9 3.25314C7.00374 3.25314 5.3789 4.8779 5.3789 6.87406C5.3789 8.22758 6.12528 9.40915 7.22801 10.0305C4.97557 10.6634 3.18674 12.4725 2.61942 14.7887C1.42716 13.3527 0.70915 11.509 0.70915 9.50044C0.70915 4.92842 4.42864 1.20912 9 1.20912Z" fill="#454545"/>
</svg>
