<svg width="19" height="20" viewBox="0 0 19 20" fill="none" class="icon icon-cart-empty" xmlns="http://www.w3.org/2000/svg">
<g clip-path="url(#clip0_2171_145)">
<path d="M6.06096 15.2788C4.96544 15.2788 4.07739 16.1669 4.07739 17.2624C4.07739 18.3579 4.96548 19.2459 6.06096 19.2459C7.15648 19.2459 8.04452 18.3578 8.04452 17.2624C8.04457 16.1669 7.15648 15.2788 6.06096 15.2788ZM6.06096 18.3644C5.45235 18.3644 4.95899 17.871 4.95899 17.2624C4.95899 16.6538 5.45235 16.1604 6.06096 16.1604C6.66957 16.1604 7.16293 16.6538 7.16293 17.2624C7.16297 17.871 6.66957 18.3644 6.06096 18.3644Z" fill="#454545"/>
<path d="M14.4361 15.2788C13.3406 15.2788 12.4525 16.1669 12.4525 17.2624C12.4525 18.3579 13.3406 19.2459 14.4361 19.2459C15.5316 19.2459 16.4196 18.3578 16.4196 17.2624C16.4196 16.1669 15.5316 15.2788 14.4361 15.2788ZM14.4361 18.3644C13.8275 18.3644 13.3341 17.871 13.3341 17.2624C13.3341 16.6538 13.8275 16.1604 14.4361 16.1604C15.0447 16.1604 15.5381 16.6538 15.5381 17.2624C15.5381 17.871 15.0447 18.3644 14.4361 18.3644Z" fill="#454545"/>
<path d="M18.9101 3.70776C18.8183 3.60749 18.6928 3.54472 18.5575 3.53143L4.20961 3.33307L3.8129 2.12087C3.53342 1.31053 2.77459 0.763464 1.91746 0.754395H0.440797C0.197344 0.754395 0 0.951739 0 1.19519C0 1.43864 0.197344 1.63599 0.440797 1.63599H1.91746C2.39673 1.64658 2.81876 1.95432 2.97539 2.40739L5.77445 10.8486L5.55407 11.3555C5.30825 11.9894 5.38208 12.7029 5.75242 13.273C6.11923 13.833 6.73632 14.1786 7.40542 14.1987H15.9789C16.2224 14.1987 16.4197 14.0013 16.4197 13.7579C16.4197 13.5144 16.2224 13.3171 15.9789 13.3171H7.40538C7.02752 13.3076 6.67971 13.1089 6.4797 12.7881C6.28194 12.4713 6.24131 12.081 6.36951 11.7302L6.54585 11.3335L15.8246 10.3637C16.8438 10.2515 17.6822 9.51018 17.9184 8.51236L18.9763 4.08237C19.024 3.9548 18.9987 3.81133 18.9101 3.70776ZM17.0588 8.31405C16.9157 8.95637 16.3704 9.43015 15.7144 9.48217L6.54585 10.4299L4.49614 4.21467L18.0065 4.41302L17.0588 8.31405Z" fill="#454545"/>
</g>
<defs>
<clipPath id="clip0_2171_145">
<rect width="19" height="19" fill="white" transform="translate(0 0.5)"/>
</clipPath>
</defs>
</svg>